<?xml version="1.0" encoding="UTF-8"?>
<!DOCTYPE svg PUBLIC "-//W3C//DTD SVG 1.1//EN" "http://www.w3.org/Graphics/SVG/1.1/DTD/svg11.dtd">
<!-- Creator: CorelDRAW 2020 (64-Bit) -->
<svg xmlns="http://www.w3.org/2000/svg" xml:space="preserve" width="24.2956mm" height="9.8661mm" version="1.1" style="shape-rendering:geometricPrecision; text-rendering:geometricPrecision; image-rendering:optimizeQuality; fill-rule:evenodd; clip-rule:evenodd"
viewBox="0 0 426.27 173.1"
 xmlns:xlink="http://www.w3.org/1999/xlink"
 xmlns:xodm="http://www.corel.com/coreldraw/odm/2003">
 <defs>
  <style type="text/css">
   <![CDATA[
    .fil0 {fill:#373435}
    .fil2 {fill:#FFCC29}
    .fil1 {fill:#0098DA}
    .fil3 {fill:#3E4095}
   ]]>
  </style>
 </defs>
 <g id="Capa_x0020_1">
  <metadata id="CorelCorpID_0Corel-Layer"/>
  <g id="_2056625896720">
   <polygon class="fil0" points="-0,118.7 426.27,119.29 426.27,118.1 -0,117.51 "/>
   <path class="fil0" d="M10.35 172.14l-10.3 -0.01 0 -1.12 0.29 0c1.26,0 2.08,-0.23 2.47,-0.69 0.39,-0.46 0.59,-1.44 0.59,-2.94l0 -18.43c0,-1.49 -0.19,-2.47 -0.59,-2.94 -0.39,-0.46 -1.21,-0.7 -2.47,-0.7l-0.29 0 0 -1.12 10.3 0.01 0 1.12 -0.27 0c-1.26,-0 -2.08,0.23 -2.48,0.69 -0.39,0.46 -0.59,1.44 -0.59,2.94l0 18.43c0,1.49 0.2,2.47 0.59,2.93 0.4,0.47 1.22,0.7 2.48,0.71l0.27 0 0 1.11z"/>
   <path class="fil0" d="M73.63 150.59l0 16.89c0,1.5 0.19,2.48 0.57,2.94 0.38,0.46 1.2,0.69 2.44,0.7l0.32 0 0 1.12 -8.63 -0.01 0 -1.12 0.22 0c1.23,0 2.04,-0.23 2.41,-0.69 0.38,-0.46 0.56,-1.44 0.56,-2.94l0 -19.19 -0.54 -0.76c-1.04,-1.41 -2.01,-2.11 -2.89,-2.11l-0.32 0 0 -1.12 5.34 0.01 16.46 20.5 0 -15.73c0,-1.49 -0.19,-2.47 -0.58,-2.94 -0.39,-0.46 -1.21,-0.7 -2.47,-0.7l-0.29 0 0 -1.12 8.62 0.01 0 1.11 -0.32 0c-1.23,-0 -2.04,0.23 -2.43,0.69 -0.39,0.46 -0.58,1.44 -0.58,2.94l-0.01 24.02 -17.87 -22.51z"/>
   <path class="fil0" d="M161.59 145.81l-2.84 -0c-2.13,-0 -3.6,0.28 -4.42,0.86 -0.81,0.57 -1.35,1.7 -1.6,3.38l-0.05 0.36 -1.47 -0 0.68 -6.5c3.1,0.34 6.33,0.51 9.69,0.52l3.75 0.01c3.36,0.01 6.59,-0.16 9.69,-0.49l0.68 6.5 -1.45 -0 -0.07 -0.36c-0.25,-1.68 -0.78,-2.81 -1.6,-3.38 -0.81,-0.58 -2.29,-0.87 -4.42,-0.87l-2.84 -0 0 21.79c0,1.51 0.23,2.49 0.69,2.95 0.46,0.46 1.43,0.69 2.92,0.69l0.27 0 0 1.12 -11.5 -0.02 0 -1.12 0.27 0c1.5,0 2.48,-0.23 2.93,-0.68 0.45,-0.46 0.68,-1.44 0.68,-2.95l0 -21.79z"/>
   <path class="fil0" d="M239.4 158.35l0 9.49c0,1.21 0.5,2.05 1.51,2.53 1.01,0.48 2.78,0.72 5.31,0.72l0.75 0c1.11,0 1.93,-0.28 2.45,-0.84 0.53,-0.56 0.91,-1.56 1.13,-2.99l0.05 -0.34 1.38 0 -0.56 6.06c-2.27,-0.16 -3.95,-0.24 -5.06,-0.24 -1.18,-0 -2.56,-0.05 -4.16,-0.15 -1.56,-0.09 -2.51,-0.13 -2.83,-0.13l-6.94 -0.01 0 -1.11 0.32 0c1.2,0 2,-0.24 2.41,-0.73 0.41,-0.48 0.61,-1.45 0.61,-2.91l0 -18.37c0,-1.54 -0.19,-2.54 -0.56,-3 -0.38,-0.46 -1.19,-0.69 -2.45,-0.69l-0.32 0 0 -1.12 18.29 0.02 0.56 5.17 -1.38 -0 -0.05 -0.38c-0.22,-1.57 -0.67,-2.53 -1.35,-2.88 -0.67,-0.35 -2.43,-0.53 -5.27,-0.53l-3.83 -0.01 0 11.32 4.09 0.01c1.92,0 3.14,-0.16 3.67,-0.49 0.53,-0.33 0.8,-1.09 0.8,-2.27l0 -0.31 1.38 0 0 7.27 -1.38 -0 0 -0.27c0,-1.06 -0.22,-1.81 -0.66,-2.27 -0.36,-0.36 -1.63,-0.54 -3.81,-0.54l-4.09 -0.01z"/>
   <path class="fil0" d="M314.49 149.39l0 18.43c0,1.49 0.2,2.47 0.59,2.93 0.39,0.47 1.23,0.7 2.49,0.71l0.25 0 0 1.12 -8.49 -0.01 0 -1.12 0.25 0c1.27,0 2.1,-0.23 2.5,-0.7 0.39,-0.47 0.59,-1.44 0.59,-2.93l0 -18.43c0,-1.49 -0.2,-2.48 -0.59,-2.94 -0.4,-0.46 -1.23,-0.7 -2.5,-0.7l-0.25 0 0 -1.12 6.46 0.01 10.44 20.11 9.57 -20.08 6.68 0.01 0 1.12 -0.28 0c-1.25,-0 -2.07,0.23 -2.47,0.69 -0.39,0.46 -0.59,1.44 -0.59,2.94l0 17.73c0,1.97 0.19,3.18 0.59,3.65 0.39,0.46 1.21,0.69 2.47,0.7l0.28 0 0 1.12 -10.01 -0.01 0 -1.12 0.22 0c1.28,0 2.12,-0.23 2.52,-0.69 0.4,-0.46 0.6,-1.44 0.6,-2.94l0 -20.28 -10.71 22.28 -10.62 -20.46z"/>
   <path class="fil0" d="M405.99 162.51l10.93 0.01 -5.58 -13.18 -5.35 13.17zm-0.52 1.38l-1.67 4.15c-0.49,1.18 -0.74,1.92 -0.74,2.23 0,0.73 0.62,1.15 1.85,1.26l0.29 0.04 0 1.12 -6.84 -0.01 0 -1.12 0.29 0c0.72,0 1.31,-0.25 1.78,-0.76 0.47,-0.51 0.99,-1.47 1.56,-2.89l9.84 -23.97 1.12 0 10.19 24c0.64,1.49 1.14,2.47 1.51,2.94 0.37,0.47 0.82,0.71 1.35,0.71l0.23 0 0 1.12 -8.22 -0.01 0 -1.12 0.31 0c0.73,0 1.22,-0.07 1.47,-0.21 0.25,-0.15 0.38,-0.43 0.38,-0.85 0,-0.35 -0.29,-1.21 -0.86,-2.59l-1.69 -4.03 -12.14 -0.02z"/>
   <path class="fil1" d="M166.38 55.17l-8.76 12.81c-17.07,-10.31 -37.95,-19.67 -56.77,-12.59 -5.02,2.03 -6.43,2.61 -9.87,4.91 -0.05,0.03 -0.59,0.43 -0.65,0.47 -0.04,0.03 -3.17,-2.25 -3.17,-2.25 0,0 0.66,-0.58 0.79,-0.69 12.5,-11.39 27.23,-19.82 48.26,-15.96 11.93,2.14 22.32,7.39 30.18,13.3z"/>
   <path class="fil1" d="M38.97 42.33c15.87,0.37 29.84,9.46 42.32,18.43 12.7,9.13 26.65,17.56 41.76,21.92 7.61,2.19 15.74,3.21 23.54,1.46 -5.37,5.58 -11.88,9.3 -19.47,10.89 -7.63,1.6 -15.68,1.54 -23.29,-0.16 -7.59,-1.69 -14.51,-4.63 -21.42,-8.21 -7,-3.62 -13.68,-8.71 -19.86,-13.55 -9.22,-7.22 -19.22,-14.38 -30.58,-17.69 -5.68,-1.66 -11.46,-2.23 -17.16,-0.29 -2.62,0.89 -5.26,2.15 -7.23,4.12 -0.9,0.9 -1.71,2.11 -2.33,3.23 -0.32,0.59 -1.08,2.66 -1.09,2.92 -0.04,-0.09 0.02,-0.93 0.13,-1.75 0.13,-1 0.4,-1.98 0.73,-2.94 0.62,-1.82 1.55,-3.5 2.7,-5.03 2.28,-3.05 5.3,-5.48 8.51,-7.46 6.78,-4.19 14.8,-6.08 22.75,-5.89z"/>
   <path class="fil0" d="M21.39 22.78c-2.34,0.58 -4.51,0.86 -6.52,0.86 -3.3,-0 -5.93,-0.84 -7.87,-2.49 -1.94,-1.66 -2.92,-3.91 -2.92,-6.74 0,-2.75 0.97,-4.98 2.9,-6.65 1.92,-1.67 4.48,-2.49 7.67,-2.48 2.35,0 4.53,0.23 6.52,0.69l0.43 3.45 -1.08 0 -0.05 -0.21c-0.23,-1.04 -0.83,-1.84 -1.82,-2.4 -0.99,-0.57 -2.27,-0.85 -3.86,-0.86 -2.19,-0 -3.97,0.78 -5.37,2.38 -1.41,1.58 -2.11,3.61 -2.11,6.07 0,2.55 0.71,4.61 2.16,6.18 1.46,1.58 3.35,2.35 5.7,2.36 3.16,0.01 5,-1.09 5.5,-3.34l0.05 -0.19 1.1 0 -0.44 3.36z"/>
   <path class="fil0" d="M46.67 21.55c1.95,-1.7 2.95,-3.92 2.95,-6.61 0,-1.39 -0.34,-2.73 -1.01,-4.02 -0.66,-1.31 -1.55,-2.37 -2.69,-3.21 -1.76,-1.32 -4.04,-1.99 -6.82,-1.99 -3.09,-0 -5.6,0.85 -7.57,2.56 -1.96,1.73 -2.95,3.93 -2.95,6.62 0,2.69 0.99,4.91 2.95,6.62 1.97,1.73 4.48,2.58 7.57,2.58 3.07,0.01 5.61,-0.84 7.57,-2.56zm-12.76 -0.53c-1.36,-1.59 -2.02,-3.63 -2.02,-6.11 0,-2.49 0.66,-4.51 2.03,-6.1 1.36,-1.59 3.08,-2.39 5.18,-2.39 2.09,0 3.81,0.81 5.17,2.4 1.36,1.59 2.04,3.62 2.04,6.11 0,2.48 -0.68,4.52 -2.04,6.1 -1.36,1.59 -3.08,2.38 -5.17,2.38 -2.11,-0 -3.85,-0.8 -5.19,-2.39z"/>
   <path class="fil0" d="M61.39 10.23l0 10.42c0,0.93 0.15,1.53 0.46,1.82 0.3,0.29 0.94,0.43 1.93,0.44l0.26 0 0 0.71 -6.8 -0.01 0 -0.71 0.16 0c0.97,0 1.61,-0.14 1.91,-0.43 0.3,-0.29 0.44,-0.89 0.44,-1.82l0 -11.92 -0.43 -0.42c-0.83,-0.87 -1.59,-1.31 -2.29,-1.31l-0.25 0 0 -0.71 4.21 0.01 13.03 12.75 0 -9.77c0,-0.94 -0.17,-1.55 -0.47,-1.84 -0.31,-0.29 -0.96,-0.42 -1.96,-0.42l-0.21 0 0 -0.71 6.8 0.01 0 0.71 -0.25 0c-0.97,-0 -1.61,0.13 -1.92,0.41 -0.3,0.29 -0.46,0.9 -0.46,1.84l-0.03 14.88 -14.12 -13.94z"/>
   <path class="fil0" d="M93.91 23.67l-8.15 -0.01 0 -0.71 0.21 0c0.99,0 1.64,-0.14 1.95,-0.43 0.31,-0.29 0.45,-0.89 0.45,-1.82l0 -11.39c0,-0.94 -0.15,-1.55 -0.45,-1.84 -0.32,-0.29 -0.97,-0.42 -1.95,-0.42l-0.21 0 0 -0.71 8.15 0.01 0 0.71 -0.21 0c-0.99,-0 -1.64,0.13 -1.95,0.41 -0.32,0.29 -0.48,0.9 -0.48,1.84l0 11.39c0,0.94 0.15,1.54 0.48,1.82 0.31,0.29 0.96,0.44 1.95,0.44l0.21 0 0 0.71z"/>
   <path class="fil0" d="M118.64 23.37c-2.34,0.57 -4.49,0.85 -6.5,0.85 -3.32,-0 -5.94,-0.83 -7.88,-2.5 -1.94,-1.65 -2.92,-3.9 -2.92,-6.73 0,-2.75 0.97,-4.98 2.89,-6.65 1.92,-1.67 4.49,-2.5 7.66,-2.5 2.36,0 4.53,0.25 6.53,0.71l0.45 3.47 -1.11 -0 -0.04 -0.22c-0.22,-1.02 -0.84,-1.83 -1.82,-2.39 -1,-0.56 -2.28,-0.85 -3.87,-0.86 -2.17,-0 -3.96,0.79 -5.37,2.39 -1.41,1.58 -2.12,3.6 -2.12,6.07 0,2.54 0.72,4.61 2.18,6.18 1.45,1.58 3.35,2.36 5.68,2.37 3.17,0 5,-1.12 5.52,-3.34l0.04 -0.2 1.1 0 -0.44 3.37z"/>
   <path class="fil0" d="M131.41 14.99l0 5.84c0,0.75 0.41,1.27 1.21,1.57 0.8,0.3 2.2,0.44 4.22,0.45l0.59 0c0.89,0 1.54,-0.16 1.96,-0.51 0.42,-0.35 0.72,-0.98 0.9,-1.85l0.04 -0.21 1.1 0 -0.43 3.77c-1.81,-0.11 -3.15,-0.15 -4.04,-0.15 -0.92,0 -2.03,-0.04 -3.29,-0.11 -1.25,-0.07 -2.01,-0.08 -2.27,-0.08l-5.52 -0.01 0 -0.71 0.27 0c0.94,0 1.57,-0.15 1.89,-0.45 0.32,-0.3 0.48,-0.9 0.48,-1.8l0 -11.39c0,-0.95 -0.15,-1.56 -0.44,-1.84 -0.3,-0.29 -0.94,-0.42 -1.93,-0.42l-0.27 0 0 -0.71 14.58 0.02 0.44 3.2 -1.11 -0 -0.04 -0.24c-0.17,-0.97 -0.54,-1.57 -1.08,-1.77 -0.53,-0.22 -1.94,-0.33 -4.21,-0.34l-3.07 -0 0 7.03 3.3 0.01c1.52,0 2.49,-0.1 2.92,-0.29 0.42,-0.2 0.62,-0.67 0.62,-1.41l0 -0.2 1.12 0 0 4.49 -1.12 -0 0 -0.17c0,-0.64 -0.17,-1.12 -0.53,-1.4 -0.28,-0.21 -1.29,-0.32 -3.02,-0.32l-3.3 -0.01z"/>
   <path class="fil0" d="M155.14 7.29l-2.24 -0c-1.69,-0 -2.86,0.18 -3.5,0.52 -0.64,0.36 -1.07,1.05 -1.26,2.09l-0.04 0.23 -1.16 -0 0.53 -4.03c2.45,0.21 5.01,0.33 7.67,0.34l2.96 0c2.68,0 5.24,-0.11 7.68,-0.31l0.54 4.03 -1.16 -0 -0.05 -0.22c-0.2,-1.05 -0.63,-1.73 -1.27,-2.09 -0.65,-0.34 -1.82,-0.52 -3.5,-0.53l-2.25 -0 0 13.49c0,0.93 0.19,1.55 0.56,1.82 0.37,0.29 1.13,0.44 2.33,0.44l0.22 0 0 0.71 -9.17 -0.01 0 -0.71 0.21 0c1.21,0 1.99,-0.14 2.35,-0.43 0.36,-0.27 0.54,-0.89 0.54,-1.82l0 -13.49z"/>
   <path class="fil2" d="M137.36 59.22c-1.09,1.12 -7.01,7.25 -10.9,11.3 0.72,-2.91 3.41,-13.54 3.47,-13.79 -0.24,-0.06 -0.47,-0.12 -0.7,-0.18 -0.38,0.85 -4.65,10.28 -5.87,13l-0.49 -14.53c-0.32,-0.04 -0.64,-0.08 -0.95,-0.12l-2.89 13.88 -5.95 -14.37 -0.61 0.06 3.35 16.58 -13.77 -14.52c-0.16,0.07 -0.29,0.11 -0.45,0.18l10 15.37 -15.12 -7.39 -0.25 0.34 0.03 0.02 -0.05 0.01 -0.09 0.12 15.48 11.17c2.28,1.17 4.43,2.15 6.44,2.88 3.1,1.13 7.05,2.38 11.37,3.31 1.78,0.38 5.89,0.86 5.89,0.86l14.73 -4.06 0.48 -0.69 -15.64 1.59 17.88 -10.26 -0.27 -0.35c-0.01,0 -3.62,1.27 -8.1,2.97 -3.95,1.51 -8.56,3.21 -11.9,4.24l13.42 -12.54 -0.34 -0.23c-0,0 -13.9,8.51 -16.85,10.36 1.41,-2.57 9.13,-14.47 9.29,-14.76 0.08,-0.14 -0.45,-0.32 -0.65,-0.42z"/>
   <path class="fil1" d="M67.77 79.05c-3.08,3.11 -8.32,6.69 -11.76,8.4 -4.25,2.11 -8.53,4.01 -15,5.09 -3.71,0.62 -8.43,0.88 -12.21,0.54 -7.32,-0.66 -15.33,-3.54 -20.56,-10.27 -2.91,-3.75 -4.42,-8.55 -4.11,-13.34 0.28,-4.38 3.74,-8.46 7.21,-10.32 -1.4,1.98 -1.69,5.5 -1.24,7.79 0.63,3.14 2.45,6.2 4,7.78 3.15,3.21 6.4,5.45 12.02,7.14 6.58,1.99 10.8,2.32 16.23,1.85 8.86,-0.76 12.29,-1.97 16.62,-3.65 1.87,-0.72 3.44,-2.01 4.92,-2.86 2.63,1.32 3.89,1.85 3.88,1.86z"/>
   <path class="fil0" d="M420.22 62.12c0.37,0.08 0.82,0.13 1.33,0.13 2.15,0 3.34,-0.1 3.58,-0.3 0.1,-0.08 0.2,-0.37 0.3,-0.86 0.01,-0.03 0.03,-0.09 0.05,-0.18l0.19 -0.81 0.52 0c-0.14,1.28 -0.25,2.2 -0.34,2.78 -1.33,0.03 -2.24,0.04 -2.73,0.04 -0.48,-0 -1.48,-0.01 -2.98,-0.04 -0.34,-0.01 -0.58,-0.01 -0.75,-0.01 -0.38,0 -0.92,0.01 -1.61,0.04l0 -0.37 0.5 -0.26c0.26,-0.14 0.39,-0.46 0.4,-0.95l0 -7.66c-0.01,-0.73 -0.07,-1.16 -0.2,-1.29 -0.11,-0.08 -0.31,-0.14 -0.61,-0.16l-0.78 -0.05 0 -0.48c0.9,0.03 1.69,0.05 2.36,0.05 0.67,0 1.46,-0.01 2.37,-0.05l0 0.48 -0.78 0.05c-0.32,0.02 -0.54,0.08 -0.64,0.19 -0.12,0.13 -0.17,0.56 -0.18,1.26l0 8.43zm-12.15 -3.61l2.04 -4.81 2.03 4.81 -4.08 -0.01zm2.71 -6.96l-0.52 0c-0.38,0.94 -0.87,2.1 -1.48,3.49l-2.87 6.53c-0.21,0.5 -0.5,0.77 -0.86,0.8l-0.6 0.05 0 0.48c0.92,-0.03 1.5,-0.05 1.75,-0.04 0.25,0 0.9,0.01 1.95,0.05l0 -0.48 -0.6 -0.05c-0.3,-0.02 -0.51,-0.08 -0.62,-0.15 -0.1,-0.06 -0.15,-0.16 -0.15,-0.29 0,-0.23 0.19,-0.8 0.57,-1.7l0.45 -1.08 4.64 0.01 0.74 1.86c0.22,0.56 0.34,0.9 0.34,1.03 0,0.19 -0.22,0.3 -0.66,0.33l-0.75 0.05 0 0.48c1.19,-0.03 1.94,-0.04 2.24,-0.04 0.3,0 0.98,0.01 2.05,0.05l0 -0.48 -0.55 -0.05c-0.2,-0.02 -0.38,-0.15 -0.53,-0.38 -0.13,-0.19 -0.34,-0.61 -0.62,-1.27l-3.9 -9.19zm-17.06 0.16l0.87 -0.05 7.76 9.6 0 -7.6c-0.01,-0.66 -0.05,-1.05 -0.14,-1.2 -0.06,-0.14 -0.3,-0.23 -0.68,-0.26l-0.72 -0.05 0 -0.48c1.04,0.03 1.66,0.05 1.86,0.05 0.26,0 0.91,-0.02 1.94,-0.05l0 0.48 -0.71 0.05c-0.39,0.03 -0.63,0.12 -0.69,0.25 -0.08,0.14 -0.13,0.54 -0.13,1.2l0 8.91c0,0.08 0.01,0.22 0.03,0.41 0.01,0.08 0.01,0.15 0.02,0.19l-1.45 -0.26 -7.62 -9.5 0 7.48c0,0.66 0.05,1.06 0.13,1.2 0.07,0.14 0.3,0.22 0.68,0.26l0.72 0.05 0 0.48c-1.02,-0.04 -1.67,-0.05 -1.94,-0.05 -0.26,-0 -0.88,0.01 -1.87,0.04l0 -0.48 0.72 -0.05c0.39,-0.04 0.61,-0.12 0.68,-0.26 0.09,-0.14 0.14,-0.54 0.14,-1.2l0 -7.25c-0.01,-0.65 -0.05,-1.05 -0.14,-1.19 -0.07,-0.14 -0.29,-0.23 -0.68,-0.26l-0.72 -0.05 0 -0.48c0.64,0.03 1.29,0.04 1.94,0.05zm-8.74 0.34c-1.42,-0 -2.49,0.49 -3.21,1.49 -0.27,0.37 -0.48,0.84 -0.63,1.39 -0.15,0.55 -0.22,1.15 -0.22,1.79 0,1.25 0.25,2.37 0.74,3.36 0.3,0.61 0.69,1.1 1.18,1.5 0.71,0.59 1.58,0.88 2.62,0.89 1.07,0 1.96,-0.34 2.65,-1.02 0.43,-0.43 0.76,-0.99 0.98,-1.69 0.23,-0.69 0.34,-1.49 0.34,-2.37 0,-1.24 -0.21,-2.29 -0.64,-3.15 -0.32,-0.64 -0.77,-1.15 -1.35,-1.53 -0.67,-0.44 -1.49,-0.66 -2.47,-0.66zm0.39 -0.68c1.22,0 2.32,0.28 3.3,0.83 0.58,0.32 1.08,0.77 1.5,1.34 0.65,0.89 0.98,1.99 0.98,3.3 0,0.93 -0.18,1.8 -0.53,2.61 -0.35,0.81 -0.86,1.51 -1.51,2.1 -1.17,1.06 -2.58,1.59 -4.22,1.59 -1.43,-0 -2.65,-0.41 -3.67,-1.23 -0.57,-0.46 -1.02,-1.03 -1.37,-1.71 -0.44,-0.86 -0.66,-1.83 -0.66,-2.9 0,-1.51 0.42,-2.79 1.26,-3.83 1.13,-1.4 2.77,-2.11 4.92,-2.11zm-8.47 2.25l0 7.25c0.01,0.73 0.07,1.16 0.2,1.29 0.1,0.08 0.3,0.14 0.62,0.17l0.78 0.05 0 0.48c-0.84,-0.03 -1.63,-0.05 -2.37,-0.05 -0.74,-0 -1.52,0.01 -2.36,0.04l0 -0.48 0.78 -0.05c0.32,-0.02 0.54,-0.09 0.64,-0.2 0.11,-0.14 0.17,-0.56 0.18,-1.26l0 -7.25c-0.01,-0.73 -0.07,-1.16 -0.2,-1.29 -0.11,-0.08 -0.31,-0.14 -0.62,-0.16l-0.78 -0.05 0 -0.48c0.91,0.03 1.69,0.05 2.36,0.05 0.67,0 1.46,-0.01 2.37,-0.05l0 0.48 -0.78 0.05c-0.32,0.02 -0.54,0.08 -0.64,0.19 -0.12,0.13 -0.18,0.56 -0.18,1.26zm-4.11 7.83l-0.15 -0.17c-1,0.65 -2.11,0.97 -3.34,0.97 -0.85,0 -1.63,-0.16 -2.34,-0.47 -0.71,-0.31 -1.31,-0.76 -1.78,-1.35 -0.74,-0.9 -1.11,-2.06 -1.11,-3.46 0,-0.85 0.14,-1.61 0.43,-2.29 0.29,-0.68 0.71,-1.25 1.25,-1.69 0.79,-0.64 1.76,-0.96 2.92,-0.96 1.03,0 1.93,0.22 2.7,0.67 0.33,0.19 0.5,0.39 0.5,0.62l0 1.16 0.5 0c0.01,-0.71 0.11,-1.52 0.31,-2.45 -1.33,-0.44 -2.57,-0.66 -3.72,-0.67 -1.43,-0 -2.7,0.32 -3.82,0.96 -1.87,1.08 -2.8,2.73 -2.8,4.94 0,1.46 0.41,2.69 1.22,3.69 0.47,0.58 1.05,1.05 1.75,1.41 1.01,0.51 2.13,0.77 3.36,0.77 1.33,0 2.55,-0.29 3.66,-0.87l0.45 -0.8zm-18.25 -3.02l4.08 0.01 -2.03 -4.81 -2.04 4.81zm2.71 -6.96l3.9 9.19c0.29,0.66 0.5,1.08 0.62,1.27 0.15,0.23 0.33,0.35 0.54,0.38l0.55 0.05 0 0.48c-1.07,-0.04 -1.75,-0.05 -2.05,-0.05 -0.3,0 -1.05,0.01 -2.24,0.04l0 -0.48 0.76 -0.05c0.44,-0.03 0.66,-0.14 0.66,-0.33 0,-0.13 -0.11,-0.47 -0.34,-1.03l-0.74 -1.86 -4.64 -0.01 -0.45 1.08c-0.38,0.9 -0.56,1.47 -0.56,1.7 0,0.13 0.05,0.22 0.15,0.29 0.11,0.07 0.32,0.12 0.62,0.15l0.6 0.05 0 0.48c-1.05,-0.04 -1.7,-0.05 -1.95,-0.05 -0.25,0 -0.84,0.01 -1.75,0.05l0 -0.48 0.6 -0.05c0.37,-0.03 0.66,-0.3 0.87,-0.79l2.87 -6.53c0.61,-1.4 1.1,-2.56 1.48,-3.49l0.52 0zm-20.55 -2.63l1.09 -0.06 9.69 12 0 -9.51c-0.01,-0.82 -0.06,-1.32 -0.17,-1.5 -0.08,-0.17 -0.36,-0.27 -0.85,-0.32l-0.89 -0.07 0 -0.6c1.3,0.04 2.08,0.06 2.33,0.06 0.33,0 1.14,-0.02 2.43,-0.06l0 0.61 -0.88 0.06c-0.49,0.04 -0.78,0.14 -0.86,0.31 -0.11,0.18 -0.16,0.68 -0.17,1.5l0 11.14c0,0.09 0.02,0.27 0.04,0.52 0.01,0.1 0.01,0.18 0.02,0.23l-1.81 -0.33 -9.53 -11.87 0 9.36c0.01,0.82 0.06,1.32 0.17,1.5 0.09,0.17 0.37,0.28 0.85,0.32l0.89 0.06 0 0.6c-1.27,-0.04 -2.09,-0.06 -2.43,-0.06 -0.32,-0 -1.09,0.02 -2.33,0.05l0 -0.6 0.9 -0.06c0.49,-0.04 0.77,-0.15 0.85,-0.32 0.11,-0.17 0.17,-0.67 0.18,-1.5l0 -9.06c-0.01,-0.82 -0.06,-1.32 -0.17,-1.5 -0.08,-0.17 -0.37,-0.28 -0.85,-0.32l-0.9 -0.07 0 -0.61c0.8,0.03 1.61,0.05 2.42,0.06zm-16.92 3.48l0 9.61c0.38,0.09 0.93,0.14 1.65,0.14 1.03,0 1.84,-0.1 2.42,-0.3 0.94,-0.34 1.66,-0.9 2.15,-1.68 0.53,-0.83 0.79,-1.88 0.79,-3.15 0,-1.6 -0.38,-2.79 -1.13,-3.55 -0.3,-0.29 -0.61,-0.52 -0.96,-0.67 -0.34,-0.15 -0.8,-0.28 -1.38,-0.37 -0.58,-0.09 -1.17,-0.14 -1.75,-0.14 -0.79,-0 -1.39,0.04 -1.79,0.12zm-2.43 10.08l0.5 -0.26c0.26,-0.14 0.39,-0.46 0.4,-0.96l0 -7.65c-0.01,-0.73 -0.08,-1.15 -0.2,-1.28 -0.08,-0.09 -0.29,-0.15 -0.61,-0.18l-0.65 -0.05 0 -0.48c1.6,0.04 2.7,0.06 3.32,0.06 0.6,0 1.33,-0.01 2.2,-0.04 0.26,-0.01 0.45,-0.01 0.6,-0.01 1.59,0 2.89,0.41 3.91,1.21 1.15,0.91 1.72,2.16 1.72,3.77 0,1.2 -0.3,2.32 -0.9,3.36 -1.12,1.94 -3.02,2.91 -5.7,2.9 -0.18,-0 -0.44,-0.01 -0.75,-0.02 -0.71,-0.03 -1.24,-0.04 -1.59,-0.04 -0.36,0 -1.11,0.01 -2.24,0.04l0 -0.37zm-9.58 -4.04l2.04 -4.81 2.03 4.81 -4.07 -0.01zm2.7 -6.96l-0.52 0c-0.38,0.94 -0.87,2.1 -1.48,3.49l-2.87 6.53c-0.21,0.5 -0.5,0.77 -0.86,0.8l-0.6 0.05 0 0.48c0.92,-0.03 1.51,-0.05 1.76,-0.04 0.25,0 0.9,0.01 1.95,0.05l0 -0.48 -0.6 -0.05c-0.29,-0.02 -0.5,-0.08 -0.62,-0.15 -0.1,-0.06 -0.15,-0.16 -0.15,-0.29 0,-0.23 0.19,-0.8 0.57,-1.7l0.44 -1.08 4.64 0.01 0.74 1.86c0.23,0.56 0.34,0.9 0.34,1.03 0,0.19 -0.22,0.3 -0.66,0.33l-0.75 0.05 0 0.48c1.19,-0.03 1.94,-0.04 2.24,-0.04 0.3,0 0.98,0.01 2.05,0.05l0 -0.48 -0.55 -0.05c-0.2,-0.02 -0.38,-0.15 -0.54,-0.38 -0.13,-0.19 -0.34,-0.61 -0.62,-1.27l-3.9 -9.19zm-14.35 0.89l0 9.61c0.38,0.09 0.93,0.14 1.65,0.14 1.03,0 1.84,-0.1 2.42,-0.3 0.94,-0.34 1.66,-0.9 2.16,-1.68 0.53,-0.83 0.8,-1.88 0.8,-3.15 0,-1.6 -0.38,-2.79 -1.14,-3.55 -0.29,-0.3 -0.61,-0.52 -0.96,-0.67 -0.34,-0.15 -0.8,-0.28 -1.38,-0.37 -0.59,-0.1 -1.17,-0.14 -1.76,-0.15 -0.79,0 -1.39,0.04 -1.79,0.12zm-2.43 10.08l0.5 -0.26c0.26,-0.14 0.4,-0.46 0.4,-0.96l0 -7.65c-0.01,-0.73 -0.08,-1.15 -0.21,-1.28 -0.08,-0.09 -0.29,-0.15 -0.61,-0.18l-0.64 -0.05 0 -0.48c1.59,0.04 2.7,0.06 3.32,0.06 0.6,0 1.33,-0.01 2.19,-0.04 0.26,-0.01 0.46,-0.01 0.6,-0.01 1.59,0 2.9,0.4 3.91,1.21 1.15,0.9 1.72,2.16 1.72,3.76 0,1.2 -0.3,2.32 -0.9,3.36 -1.12,1.94 -3.02,2.91 -5.7,2.9 -0.19,0 -0.44,-0.01 -0.76,-0.02 -0.7,-0.03 -1.23,-0.04 -1.59,-0.04 -0.36,-0 -1.11,0.01 -2.23,0.04l0 -0.37zm-2.86 -8.87l0 7.25c0.01,0.73 0.07,1.16 0.2,1.29 0.1,0.08 0.3,0.14 0.62,0.17l0.78 0.05 0 0.48c-0.84,-0.04 -1.63,-0.05 -2.37,-0.05 -0.74,0 -1.53,0.01 -2.36,0.04l0 -0.48 0.78 -0.05c0.33,-0.02 0.54,-0.09 0.64,-0.19 0.12,-0.14 0.18,-0.56 0.18,-1.26l0 -7.25c-0,-0.74 -0.07,-1.17 -0.2,-1.29 -0.11,-0.08 -0.31,-0.14 -0.62,-0.16l-0.78 -0.05 0 -0.48c0.91,0.03 1.7,0.05 2.36,0.05 0.67,0 1.46,-0.02 2.37,-0.05l0 0.48 -0.78 0.05c-0.32,0.02 -0.54,0.08 -0.64,0.19 -0.11,0.13 -0.17,0.56 -0.18,1.26zm-4.74 0.69l-0.51 0 -0.1 -0.92c-0.03,-0.28 -0.11,-0.49 -0.25,-0.63 -0.5,-0.48 -1.22,-0.73 -2.16,-0.73 -0.5,0 -0.94,0.11 -1.33,0.34 -0.74,0.43 -1.11,1.09 -1.11,1.99 0,0.58 0.18,1.02 0.56,1.34 0.38,0.32 1.07,0.55 2.1,0.69 1.07,0.15 1.81,0.3 2.22,0.49 0.48,0.21 0.85,0.47 1.09,0.79 0.26,0.35 0.39,0.83 0.39,1.44 0,1.14 -0.42,2.07 -1.27,2.81 -0.43,0.38 -0.96,0.68 -1.59,0.89 -0.63,0.21 -1.29,0.32 -1.96,0.32 -0.94,-0 -1.87,-0.21 -2.79,-0.62 0.08,-0.6 0.12,-1.19 0.12,-1.77 0,-0.15 -0,-0.38 -0.01,-0.7l0.51 0 0.13 1.08c0.03,0.27 0.24,0.52 0.61,0.76 0.56,0.36 1.24,0.54 2.01,0.54 0.92,0 1.67,-0.28 2.23,-0.85 0.44,-0.44 0.66,-0.99 0.66,-1.65 0,-0.6 -0.2,-1.07 -0.61,-1.42 -0.25,-0.22 -0.6,-0.39 -1.05,-0.51 -0.24,-0.07 -0.63,-0.14 -1.17,-0.22 -0.99,-0.14 -1.69,-0.31 -2.13,-0.51 -0.43,-0.2 -0.76,-0.46 -0.99,-0.76 -0.28,-0.37 -0.42,-0.88 -0.42,-1.52 0,-1.05 0.38,-1.91 1.14,-2.59 0.36,-0.32 0.82,-0.58 1.35,-0.76 0.53,-0.18 1.08,-0.27 1.65,-0.27 0.61,0 1.25,0.11 1.92,0.33 0.25,0.08 0.57,0.2 0.98,0.35 -0.15,0.78 -0.22,1.54 -0.23,2.28zm-14.47 -1.89l0 8.43c0.01,0.73 0.07,1.16 0.2,1.29 0.1,0.08 0.3,0.14 0.62,0.17l0.78 0.05 0 0.48c-0.84,-0.04 -1.63,-0.05 -2.37,-0.05 -0.74,-0 -1.53,0.01 -2.36,0.04l0 -0.48 0.78 -0.05c0.33,-0.02 0.54,-0.09 0.64,-0.2 0.12,-0.14 0.18,-0.56 0.18,-1.26l0 -7.25c-0.01,-0.73 -0.07,-1.15 -0.19,-1.28 -0.09,-0.09 -0.29,-0.15 -0.63,-0.18l-0.66 -0.05 0 -0.48c1.46,0.03 2.39,0.05 2.78,0.05 0.54,0 1.25,-0.01 2.13,-0.03 0.33,-0.01 0.57,-0.02 0.73,-0.02 0.8,0 1.45,0.13 1.94,0.38 0.81,0.4 1.22,1.09 1.22,2.04 0,0.95 -0.43,1.74 -1.3,2.36 -0.28,0.2 -0.57,0.36 -0.87,0.48 -0.22,0.08 -0.55,0.18 -0.98,0.28l3.65 4.79c0.19,0.24 0.52,0.39 0.98,0.42l0 0.48c-0.63,-0.04 -1.02,-0.05 -1.17,-0.05 -0.16,0 -0.53,0.01 -1.09,0.05 -0.17,-0.24 -0.39,-0.53 -0.65,-0.87l-2.97 -3.99c-0.11,-0.15 -0.25,-0.32 -0.42,-0.52 -0.15,-0.17 -0.28,-0.33 -0.41,-0.48l0.09 -0.2c0.2,0.01 0.35,0.02 0.46,0.02 0.78,0 1.4,-0.14 1.88,-0.41 0.79,-0.45 1.18,-1.12 1.18,-2.01 0,-0.73 -0.26,-1.29 -0.79,-1.68 -0.42,-0.31 -1.03,-0.47 -1.82,-0.47 -0.51,-0 -1.04,0.06 -1.58,0.19zm-4.38 -0.76c-0.16,0.69 -0.25,1.51 -0.25,2.45l-0.57 0 0 -1.05c0,-0.22 -0.03,-0.35 -0.09,-0.4 -0.11,-0.09 -0.47,-0.19 -1.09,-0.28 -0.51,-0.07 -1,-0.1 -1.48,-0.1 -0.94,-0 -1.6,0.04 -1.99,0.13l0 4.31c0.54,0.03 1.13,0.05 1.76,0.05 0.95,0 1.55,-0.06 1.81,-0.17 0.07,-0.14 0.11,-0.28 0.12,-0.42l0.09 -0.85 0.48 0c-0.03,0.94 -0.05,1.56 -0.05,1.88 0,0.29 0.02,0.89 0.05,1.79l-0.48 0 -0.09 -0.96 -0.12 -0.4c-0.25,-0.13 -0.88,-0.2 -1.89,-0.2 -0.72,0 -1.28,0.02 -1.69,0.05l0 4.53c0.38,0.08 0.89,0.13 1.54,0.13 1.77,0 2.78,-0.06 3.05,-0.2 0.15,-0.07 0.28,-0.34 0.4,-0.79 0.04,-0.14 0.1,-0.48 0.18,-1.02l0.56 0c-0.17,0.83 -0.25,1.71 -0.26,2.65 -1.32,0.03 -2.22,0.04 -2.69,0.04 -0.49,-0 -1.35,-0.01 -2.58,-0.04 -0.51,-0.01 -0.88,-0.02 -1.11,-0.02 -0.43,0 -1.11,0.01 -2.02,0.04l0 -0.48 0.58 -0.05c0.35,-0.04 0.56,-0.11 0.65,-0.2 0.11,-0.13 0.16,-0.55 0.17,-1.25l0 -7.25c-0.01,-0.73 -0.07,-1.17 -0.2,-1.29 -0.11,-0.08 -0.31,-0.14 -0.62,-0.16l-0.78 -0.05 0 -0.48c1.38,0.03 2.34,0.05 2.88,0.05 0.37,0 1.08,-0.01 2.13,-0.03 0.66,-0.01 1.2,-0.02 1.59,-0.02 0.68,0 1.35,0.02 2,0.05zm-16.17 0.41l-0.9 0.05c-0.35,0.02 -0.52,0.12 -0.52,0.32 0,0.06 0.01,0.12 0.04,0.18l3.17 8.19 2.95 -7.63c0.1,-0.25 0.14,-0.46 0.14,-0.64 0,-0.26 -0.18,-0.39 -0.56,-0.42l-0.84 -0.05 0 -0.48 0.61 0.03c0.45,0.01 0.76,0.03 0.95,0.03l0.1 0 0.07 0 1.75 -0.05 0 0.48 -0.49 0.05c-0.12,0.01 -0.23,0.07 -0.34,0.18 -0.13,0.12 -0.31,0.45 -0.53,0.98l-2.8 6.79c-0.43,1.05 -0.78,1.99 -1.03,2.82l-0.8 -0c-0.21,-0.75 -0.53,-1.64 -0.94,-2.66l-3.03 -7.48c-0.09,-0.22 -0.19,-0.39 -0.3,-0.49 -0.11,-0.1 -0.24,-0.15 -0.41,-0.17l-0.58 -0.05 0 -0.48c1.08,0.03 1.8,0.05 2.14,0.05 0.35,0 1.06,-0.02 2.15,-0.05l0 0.48zm-6.36 1.5l0 7.25c0.01,0.73 0.07,1.16 0.21,1.29 0.1,0.08 0.3,0.14 0.61,0.17l0.78 0.05 0 0.48c-0.84,-0.03 -1.63,-0.05 -2.37,-0.05 -0.74,-0 -1.53,0.01 -2.37,0.04l0 -0.48 0.78 -0.05c0.32,-0.02 0.54,-0.09 0.64,-0.2 0.12,-0.14 0.18,-0.56 0.18,-1.26l0 -7.25c-0,-0.73 -0.07,-1.16 -0.2,-1.29 -0.1,-0.08 -0.31,-0.14 -0.61,-0.16l-0.78 -0.06 0 -0.48c0.91,0.03 1.7,0.05 2.37,0.05 0.67,0 1.46,-0.01 2.37,-0.05l0 0.48 -0.78 0.05c-0.32,0.02 -0.54,0.08 -0.64,0.19 -0.12,0.13 -0.18,0.56 -0.18,1.26zm-14.66 -1.96l0.87 -0.05 7.75 9.6 0 -7.6c-0.01,-0.66 -0.05,-1.05 -0.14,-1.2 -0.07,-0.14 -0.3,-0.22 -0.68,-0.26l-0.71 -0.05 0 -0.48c1.04,0.03 1.66,0.05 1.86,0.05 0.26,0 0.91,-0.02 1.94,-0.05l0 0.48 -0.71 0.05c-0.39,0.03 -0.63,0.12 -0.69,0.26 -0.08,0.14 -0.13,0.54 -0.13,1.19l0 8.91c0,0.07 0.01,0.21 0.03,0.41 0.01,0.08 0.01,0.14 0.02,0.19l-1.45 -0.26 -7.63 -9.5 0 7.48c0.01,0.66 0.05,1.06 0.14,1.2 0.06,0.14 0.29,0.22 0.68,0.26l0.72 0.05 0 0.48c-1.02,-0.04 -1.67,-0.05 -1.94,-0.05 -0.26,0 -0.88,0.01 -1.86,0.04l0 -0.48 0.71 -0.05c0.39,-0.04 0.61,-0.12 0.68,-0.26 0.09,-0.14 0.14,-0.54 0.14,-1.2l0 -7.25c-0,-0.66 -0.05,-1.05 -0.13,-1.2 -0.07,-0.14 -0.29,-0.23 -0.68,-0.26l-0.71 -0.05 0 -0.48c0.64,0.03 1.28,0.04 1.93,0.05zm-4.5 -0.37l0 5.84c0,2.21 -0.46,3.78 -1.39,4.71 -0.89,0.89 -2.34,1.34 -4.35,1.33 -2.03,-0 -3.45,-0.42 -4.26,-1.26 -0.75,-0.77 -1.13,-1.93 -1.13,-3.47l0 -7.17c-0.01,-0.92 -0.09,-1.46 -0.26,-1.61 -0.13,-0.11 -0.39,-0.17 -0.77,-0.2l-0.97 -0.07 0 -0.61c1.14,0.04 2.12,0.06 2.95,0.06 0.83,0 1.82,-0.02 2.96,-0.06l0 0.61 -0.97 0.06c-0.41,0.03 -0.67,0.1 -0.8,0.24 -0.14,0.17 -0.22,0.69 -0.23,1.57l0 6.94c0,1.13 0.23,1.98 0.69,2.54 0.64,0.77 1.75,1.16 3.32,1.16 1.36,0 2.36,-0.27 3.01,-0.81 0.84,-0.7 1.27,-1.82 1.27,-3.36l0 -6.46c-0,-0.82 -0.06,-1.32 -0.16,-1.5 -0.09,-0.17 -0.37,-0.28 -0.86,-0.32l-0.89 -0.07 0 -0.61c1.3,0.04 2.08,0.06 2.33,0.06 0.32,0 1.14,-0.02 2.42,-0.05l0 0.6 -0.89 0.06c-0.49,0.04 -0.78,0.14 -0.86,0.32 -0.1,0.18 -0.16,0.68 -0.17,1.5z"/>
   <path class="fil0" d="M388.94 83.04l4.07 0.01 -2.03 -4.81 -2.04 4.81zm2.7 -6.96l3.9 9.18c0.29,0.66 0.5,1.09 0.62,1.27 0.15,0.23 0.33,0.36 0.53,0.38l0.55 0.05 0 0.48c-1.07,-0.04 -1.75,-0.05 -2.05,-0.05 -0.31,-0 -1.05,0.01 -2.24,0.04l0 -0.48 0.75 -0.05c0.44,-0.03 0.66,-0.14 0.66,-0.33 0,-0.13 -0.11,-0.47 -0.34,-1.02l-0.74 -1.86 -4.64 -0.01 -0.45 1.08c-0.38,0.9 -0.57,1.47 -0.57,1.7 0,0.13 0.05,0.22 0.15,0.29 0.12,0.07 0.32,0.12 0.62,0.15l0.6 0.05 0 0.48c-1.05,-0.04 -1.7,-0.05 -1.95,-0.05 -0.25,0 -0.83,0.01 -1.75,0.05l0 -0.48 0.6 -0.05c0.36,-0.03 0.65,-0.29 0.86,-0.8l2.87 -6.53c0.61,-1.39 1.1,-2.56 1.48,-3.5l0.52 0zm-11.26 0.91c0.04,0.44 0.06,0.98 0.06,1.62l0 6.83c-0.01,0.71 -0.07,1.13 -0.18,1.26 -0.1,0.1 -0.31,0.17 -0.64,0.2l-0.78 0.05 0 0.48c0.84,-0.03 1.62,-0.05 2.36,-0.05 0.74,0 1.53,0.02 2.37,0.05l0 -0.48 -0.78 -0.05c-0.31,-0.03 -0.52,-0.08 -0.62,-0.17 -0.13,-0.13 -0.2,-0.56 -0.2,-1.3l0 -6.83c0,-0.67 0.02,-1.21 0.06,-1.62l2.5 0c0.24,0 0.4,0.04 0.49,0.12 0.09,0.08 0.14,0.22 0.15,0.42l0.07 1.28 0.5 0c0,-0.93 0.04,-1.8 0.12,-2.6 -0.02,0 -1.18,0.01 -3.48,0.04l-2.54 -0c-0.42,-0.01 -1.51,-0.02 -3.28,-0.05 0.07,0.81 0.11,1.67 0.12,2.61l0.49 0 0.07 -1.28c0.01,-0.18 0.05,-0.31 0.13,-0.39 0.08,-0.09 0.25,-0.14 0.51,-0.14l2.5 0zm-11.65 6.03l4.08 0.01 -2.03 -4.81 -2.05 4.81zm2.71 -6.96l3.9 9.18c0.29,0.66 0.49,1.09 0.62,1.27 0.16,0.23 0.34,0.36 0.54,0.38l0.55 0.05 0 0.48c-1.07,-0.04 -1.75,-0.05 -2.05,-0.05 -0.3,-0 -1.05,0.01 -2.24,0.04l0 -0.48 0.76 -0.05c0.44,-0.03 0.66,-0.14 0.66,-0.33 0,-0.13 -0.11,-0.47 -0.34,-1.02l-0.74 -1.86 -4.64 -0.01 -0.45 1.08c-0.38,0.9 -0.56,1.47 -0.56,1.7 0,0.13 0.05,0.22 0.15,0.29 0.11,0.07 0.32,0.12 0.62,0.15l0.6 0.05 0 0.48c-1.06,-0.04 -1.7,-0.05 -1.95,-0.05 -0.25,0 -0.84,0.01 -1.75,0.05l0 -0.48 0.6 -0.05c0.36,-0.03 0.65,-0.29 0.86,-0.8l2.87 -6.53c0.61,-1.39 1.1,-2.56 1.48,-3.5l0.52 0zm-12.82 10.54c0.37,0.08 0.81,0.13 1.33,0.13 2.15,0 3.34,-0.09 3.58,-0.29 0.1,-0.09 0.2,-0.37 0.3,-0.86 0.01,-0.03 0.03,-0.09 0.05,-0.18l0.19 -0.81 0.52 0c-0.14,1.28 -0.25,2.2 -0.34,2.78 -1.32,0.03 -2.23,0.05 -2.72,0.05 -0.49,-0 -1.48,-0.02 -2.98,-0.05 -0.34,-0.01 -0.58,-0.01 -0.75,-0.01 -0.38,0 -0.92,0.01 -1.61,0.05l0 -0.37 0.5 -0.26c0.26,-0.14 0.4,-0.46 0.4,-0.94l0 -7.66c-0.01,-0.74 -0.07,-1.17 -0.21,-1.29 -0.1,-0.08 -0.31,-0.14 -0.62,-0.16l-0.78 -0.05 0 -0.48c0.9,0.03 1.69,0.05 2.36,0.05 0.67,0 1.46,-0.01 2.37,-0.04l0 0.48 -0.78 0.05c-0.32,0.02 -0.54,0.08 -0.64,0.19 -0.11,0.13 -0.17,0.56 -0.18,1.26l0 8.43zm-11.3 -12.22l0 10.53c0.01,0.92 0.09,1.45 0.26,1.62 0.12,0.11 0.38,0.17 0.77,0.21l0.97 0.06 0 0.6c-1.05,-0.04 -2.04,-0.06 -2.96,-0.06 -0.92,-0 -1.91,0.02 -2.95,0.06l0 -0.6 0.97 -0.06c0.41,-0.03 0.67,-0.12 0.8,-0.25 0.15,-0.17 0.22,-0.69 0.23,-1.58l0 -9.06c-0.01,-0.75 -0.07,-1.24 -0.18,-1.44 -0.12,-0.22 -0.42,-0.35 -0.89,-0.38l-0.9 -0.07 0 -0.6c1.89,0.04 3.12,0.06 3.69,0.06 0.62,0 1.57,-0.02 2.85,-0.04 0.24,-0.01 0.43,-0.01 0.55,-0.01 0.98,0 1.8,0.18 2.48,0.52 1.1,0.55 1.65,1.43 1.65,2.63 0,1.04 -0.36,1.95 -1.08,2.74 -0.95,1.04 -2.21,1.56 -3.78,1.55 -0.36,0 -0.75,-0.05 -1.18,-0.13l-0.2 -0.72c0.45,0.13 0.86,0.2 1.24,0.2 1.04,0 1.84,-0.38 2.41,-1.17 0.38,-0.53 0.57,-1.17 0.57,-1.91 0,-1.04 -0.35,-1.83 -1.04,-2.35 -0.52,-0.39 -1.29,-0.58 -2.29,-0.58 -0.64,0 -1.3,0.08 -1.98,0.24zm-14.74 12.19c0.37,0.08 0.81,0.13 1.33,0.13 2.15,0 3.34,-0.09 3.58,-0.29 0.1,-0.09 0.2,-0.37 0.3,-0.86 0.01,-0.03 0.03,-0.09 0.05,-0.18l0.18 -0.81 0.52 0c-0.14,1.28 -0.25,2.2 -0.34,2.78 -1.33,0.03 -2.23,0.04 -2.72,0.04 -0.49,0 -1.48,-0.02 -2.98,-0.04 -0.34,-0.01 -0.59,-0.01 -0.75,-0.01 -0.38,-0 -0.92,0.01 -1.61,0.05l0 -0.37 0.5 -0.26c0.26,-0.14 0.39,-0.46 0.4,-0.94l0 -7.66c-0.01,-0.74 -0.07,-1.17 -0.2,-1.29 -0.11,-0.08 -0.31,-0.14 -0.62,-0.16l-0.78 -0.05 0 -0.48c0.9,0.03 1.69,0.05 2.36,0.05 0.67,0 1.46,-0.01 2.37,-0.04l0 0.48 -0.78 0.05c-0.32,0.02 -0.54,0.08 -0.64,0.19 -0.11,0.14 -0.17,0.56 -0.18,1.26l0 8.43zm-4.38 -10.38c-0.16,0.69 -0.25,1.5 -0.25,2.45l-0.57 0 0 -1.05c0,-0.21 -0.03,-0.35 -0.1,-0.4 -0.1,-0.09 -0.46,-0.19 -1.08,-0.28 -0.51,-0.07 -1,-0.1 -1.48,-0.11 -0.94,0 -1.6,0.05 -1.99,0.13l0 4.31c0.54,0.03 1.13,0.05 1.76,0.05 0.95,0 1.55,-0.05 1.81,-0.17 0.07,-0.14 0.12,-0.28 0.13,-0.42l0.09 -0.85 0.48 0c-0.03,0.94 -0.05,1.56 -0.05,1.88 0,0.29 0.02,0.89 0.05,1.79l-0.48 -0 -0.09 -0.95 -0.13 -0.4c-0.25,-0.13 -0.88,-0.2 -1.89,-0.2 -0.71,-0 -1.27,0.01 -1.68,0.05l0 4.53c0.38,0.08 0.89,0.13 1.54,0.13 1.76,0 2.78,-0.06 3.05,-0.2 0.15,-0.08 0.28,-0.34 0.4,-0.79 0.04,-0.14 0.1,-0.49 0.18,-1.03l0.56 0c-0.16,0.83 -0.25,1.71 -0.26,2.65 -1.33,0.03 -2.22,0.05 -2.69,0.04 -0.49,0 -1.35,-0.01 -2.58,-0.04 -0.51,-0.01 -0.88,-0.02 -1.11,-0.02 -0.43,-0 -1.1,0.01 -2.02,0.05l0 -0.48 0.58 -0.05c0.35,-0.04 0.56,-0.1 0.65,-0.21 0.11,-0.13 0.17,-0.55 0.17,-1.25l0 -7.25c-0,-0.74 -0.07,-1.17 -0.2,-1.29 -0.11,-0.08 -0.31,-0.14 -0.62,-0.16l-0.78 -0.05 0 -0.48c1.38,0.03 2.34,0.05 2.88,0.05 0.37,0 1.09,-0.01 2.13,-0.03 0.66,-0.01 1.19,-0.01 1.59,-0.01 0.68,0 1.35,0.02 2,0.05zm-18.07 0.7l0 9.62c0.38,0.09 0.94,0.13 1.65,0.13 1.04,0 1.85,-0.1 2.42,-0.3 0.94,-0.34 1.66,-0.9 2.16,-1.69 0.53,-0.83 0.79,-1.88 0.79,-3.15 0,-1.6 -0.38,-2.79 -1.13,-3.55 -0.29,-0.29 -0.61,-0.52 -0.96,-0.67 -0.34,-0.15 -0.8,-0.27 -1.38,-0.37 -0.58,-0.1 -1.17,-0.14 -1.76,-0.14 -0.79,-0 -1.39,0.04 -1.79,0.12zm-2.43 10.07l0.49 -0.26c0.26,-0.14 0.4,-0.45 0.4,-0.95l0 -7.65c-0.01,-0.73 -0.08,-1.16 -0.2,-1.28 -0.08,-0.09 -0.29,-0.15 -0.61,-0.18l-0.65 -0.05 0 -0.48c1.59,0.04 2.7,0.05 3.32,0.05 0.6,0 1.33,-0.01 2.2,-0.04 0.25,-0.01 0.46,-0.01 0.59,-0.01 1.6,0 2.9,0.4 3.91,1.2 1.15,0.91 1.72,2.16 1.72,3.77 0,1.2 -0.3,2.32 -0.9,3.36 -1.12,1.94 -3.02,2.91 -5.7,2.9 -0.18,0 -0.44,-0.01 -0.76,-0.02 -0.7,-0.03 -1.23,-0.04 -1.59,-0.04 -0.36,0 -1.11,0.01 -2.23,0.05l0 -0.37zm-13.23 -10.06l0 8.43c0.01,0.73 0.07,1.16 0.21,1.3 0.1,0.08 0.3,0.14 0.61,0.16l0.78 0.05 0 0.48c-0.84,-0.04 -1.63,-0.05 -2.37,-0.05 -0.74,-0 -1.52,0.01 -2.36,0.04l0 -0.48 0.78 -0.05c0.32,-0.03 0.54,-0.09 0.64,-0.2 0.11,-0.14 0.17,-0.56 0.18,-1.26l0 -7.25c-0.01,-0.73 -0.07,-1.16 -0.2,-1.28 -0.08,-0.09 -0.29,-0.15 -0.62,-0.18l-0.66 -0.05 0 -0.48c1.46,0.03 2.39,0.05 2.78,0.05 0.54,0 1.25,-0.01 2.13,-0.03 0.33,-0.01 0.57,-0.01 0.73,-0.01 0.81,0 1.45,0.13 1.94,0.37 0.81,0.4 1.22,1.09 1.22,2.04 0,0.95 -0.43,1.74 -1.3,2.36 -0.28,0.21 -0.56,0.36 -0.86,0.48 -0.22,0.08 -0.55,0.18 -0.98,0.28l3.65 4.79c0.19,0.25 0.52,0.39 0.98,0.43l0 0.48c-0.63,-0.04 -1.02,-0.05 -1.17,-0.05 -0.17,0 -0.53,0.01 -1.09,0.05 -0.17,-0.24 -0.39,-0.53 -0.65,-0.87l-2.97 -4c-0.11,-0.15 -0.25,-0.32 -0.42,-0.52 -0.15,-0.17 -0.28,-0.33 -0.41,-0.48l0.09 -0.2c0.2,0.01 0.35,0.02 0.46,0.02 0.78,0 1.4,-0.13 1.88,-0.41 0.79,-0.45 1.18,-1.12 1.18,-2.01 0,-0.73 -0.26,-1.29 -0.79,-1.68 -0.42,-0.31 -1.03,-0.47 -1.82,-0.47 -0.52,0 -1.04,0.06 -1.58,0.19zm-12.14 6.01l4.07 0.01 -2.03 -4.81 -2.04 4.81zm2.71 -6.96l3.9 9.18c0.29,0.66 0.49,1.09 0.62,1.27 0.15,0.23 0.34,0.36 0.53,0.38l0.55 0.05 0 0.48c-1.07,-0.04 -1.75,-0.05 -2.05,-0.05 -0.3,-0 -1.05,0.01 -2.24,0.04l0 -0.48 0.76 -0.05c0.44,-0.03 0.66,-0.14 0.66,-0.33 0,-0.13 -0.11,-0.47 -0.34,-1.02l-0.74 -1.86 -4.64 -0.01 -0.44 1.08c-0.38,0.9 -0.57,1.47 -0.57,1.7 0,0.13 0.05,0.22 0.15,0.29 0.11,0.07 0.32,0.12 0.62,0.15l0.6 0.05 0 0.48c-1.06,-0.04 -1.71,-0.05 -1.95,-0.05 -0.25,0 -0.83,0.01 -1.75,0.05l0 -0.48 0.6 -0.05c0.36,-0.03 0.66,-0.29 0.86,-0.8l2.87 -6.53c0.61,-1.39 1.1,-2.56 1.48,-3.5l0.52 0zm-10.88 -0.37c-0.34,0.61 -0.63,1.18 -0.88,1.73l-3.58 7.63c-0.15,0.3 -0.51,1.15 -1.1,2.56l-0.4 -0 -5.62 -11.94 0 9.24c0.01,0.82 0.06,1.32 0.17,1.5 0.09,0.17 0.37,0.28 0.85,0.32l0.89 0.06 0 0.6c-1.27,-0.04 -2.09,-0.06 -2.42,-0.06 -0.32,-0 -1.1,0.02 -2.33,0.06l0 -0.6 0.89 -0.06c0.49,-0.04 0.78,-0.15 0.86,-0.32 0.1,-0.18 0.16,-0.68 0.17,-1.5l0 -9.06c-0,-0.82 -0.06,-1.32 -0.17,-1.5 -0.08,-0.17 -0.37,-0.27 -0.86,-0.32l-0.89 -0.07 0 -0.61c1.05,0.04 1.69,0.06 1.92,0.06 0.22,0 0.86,-0.02 1.91,-0.06l5.32 11.23 5.27 -11.21c0.99,0.04 1.63,0.06 1.92,0.06 0.3,0 0.92,-0.02 1.86,-0.06l0 0.61 -0.84 0.07c-0.49,0.04 -0.78,0.14 -0.87,0.31 -0.11,0.17 -0.16,0.67 -0.17,1.5l0 9.06c0.01,0.92 0.09,1.45 0.26,1.62 0.12,0.11 0.38,0.17 0.78,0.21l0.96 0.06 0 0.6c-1.04,-0.04 -2.06,-0.06 -3.05,-0.06 -0.91,-0 -1.77,0.02 -2.58,0.06l0 -0.6 0.69 -0.06c0.43,-0.04 0.7,-0.13 0.81,-0.25 0.14,-0.18 0.21,-0.7 0.22,-1.57l0 -9.24zm-23.37 7.8c0.73,-0.15 1.31,-0.34 1.76,-0.56 0.32,-0.16 0.59,-0.36 0.83,-0.61 0.39,-0.41 0.57,-0.83 0.57,-1.28 0,-0.27 -0.07,-0.48 -0.22,-0.62 -0.14,-0.14 -0.32,-0.21 -0.55,-0.21 -0.19,-0 -0.4,0.04 -0.62,0.13 -0.22,0.09 -0.41,0.2 -0.55,0.33 -0.44,0.4 -0.79,1.15 -1.05,2.23l-0.15 0.59zm3.74 2.35c-0.66,0.54 -1.22,0.94 -1.69,1.19 -0.58,0.31 -1.11,0.47 -1.61,0.47 -0.57,0 -1.02,-0.17 -1.35,-0.5 -0.35,-0.35 -0.52,-0.85 -0.52,-1.5 0,-0.75 0.17,-1.66 0.5,-2.71 0.18,-0.56 0.38,-1 0.6,-1.3 0.41,-0.58 1.07,-1.11 1.97,-1.57 0.51,-0.26 0.96,-0.39 1.35,-0.39 0.42,0 0.77,0.13 1.03,0.39 0.22,0.22 0.33,0.51 0.33,0.87 0,0.97 -0.66,1.75 -1.99,2.34 -0.44,0.2 -0.81,0.34 -1.11,0.41l-1.32 0.32c-0.08,0.45 -0.13,0.88 -0.13,1.29 0,0.58 0.13,1 0.4,1.26 0.22,0.22 0.5,0.33 0.83,0.33 0.58,0 1.31,-0.31 2.2,-0.94l0.38 -0.27 0.13 0.3zm-7.85 -5.15c-0.49,-0.25 -1.06,-0.37 -1.7,-0.37 -0.43,0 -0.74,0.08 -0.95,0.24 -0.36,0.27 -0.69,0.88 -0.98,1.81 -0.37,1.14 -0.55,2.26 -0.55,3.36 0,0.42 0.14,0.62 0.4,0.62 0.15,0 0.38,-0.08 0.66,-0.26 0.29,-0.17 0.57,-0.39 0.86,-0.66 0.67,-0.63 1.22,-1.42 1.63,-2.37 0.21,-0.46 0.35,-0.94 0.45,-1.42l0.19 -0.96zm2.16 -5.03l-2.03 9.59c-0.09,0.38 -0.13,0.64 -0.13,0.76 0,0.24 0.08,0.36 0.23,0.36 0.16,0 0.37,-0.09 0.62,-0.28l0.72 -0.5 0.15 0.31 -1.3 0.97c-0.54,0.4 -0.94,0.6 -1.2,0.6 -0.28,0 -0.42,-0.18 -0.42,-0.54 0,-0.41 0.09,-0.96 0.26,-1.65l0.36 -1.47c-0.61,0.93 -1.11,1.6 -1.48,2.02 -1,1.11 -1.85,1.66 -2.56,1.66 -0.48,0 -0.72,-0.52 -0.72,-1.56 0,-0.69 0.07,-1.38 0.22,-2.08 0.15,-0.7 0.35,-1.28 0.6,-1.75 0.25,-0.47 0.58,-0.92 1.01,-1.33 0.42,-0.41 0.88,-0.75 1.37,-1 0.31,-0.16 0.64,-0.24 0.98,-0.23 0.42,0 0.86,0.07 1.32,0.22l0.46 -2.49c0.02,-0.12 0.03,-0.25 0.03,-0.38 0,-0.26 -0.18,-0.39 -0.55,-0.39l-0.77 -0 0.06 -0.34c0.42,-0.03 0.86,-0.1 1.31,-0.19 0.41,-0.1 0.83,-0.26 1.27,-0.48l0.19 0.18z"/>
   <path class="fil3" d="M295.84 19.94c-0.65,9.93 4.89,18.6 14.83,22.68 6.31,2.59 16.33,1.37 21.62,-3.04 2.18,-1.81 4.33,-4.74 5.41,-7.19 0.39,-0.87 1.02,-2.01 1.54,-3.4l-11.43 -0.02c-4.6,-0.01 -12.41,0.51 -13.53,-6.21 -1.31,-7.93 8.62,-10.85 13.39,-4.32 1.19,1.66 0.64,7.49 1.14,2.3 0.35,-3.55 -0.98,-7.18 -5.91,-9.19 -1.4,-0.56 -4.02,-0.99 -5.23,-1.18 3.25,-2.15 10.89,-0.04 11.52,1.19 -2.73,-5.14 -9.6,-6.07 -10.17,-6.03 2.5,-0.96 8,0.47 9.97,1.15 3.14,1.08 5.73,2.82 8.27,5.64 1.12,1.21 2.33,3.07 2.87,4.34 -0.52,-1.72 -0.87,-3.09 -2.27,-5.35 -3.54,-5.65 -8.45,-8.44 -14.76,-10.55 -3.92,-1.32 -9.45,-0.88 -12.97,0.62 -5.56,2.4 -9.45,5.48 -12.26,11.11 -1.02,2.04 -2.04,4.95 -2.04,7.42z"/>
   <path class="fil0" d="M393.3 97.94l2.51 0 0 2.51 -2.51 -0 0 -2.51zm0 2.51zm-13.93 -2.53l2.51 0 0 2.51 -2.51 -0 0 -2.51zm0 2.51zm-13.93 -2.53l2.51 0 0 2.51 -2.51 -0 0 -2.51zm0 2.51zm-13.92 -2.53l2.51 0 0 2.51 -2.51 -0 0 -2.51zm0 2.51zm-13.93 -2.53l2.51 0 0 2.51 -2.51 -0 0 -2.51zm0 2.51zm-13.93 -2.53l2.51 0 0 2.51 -2.51 -0 0 -2.51zm0 2.51zm-13.93 -2.53l2.51 0 0 2.51 -2.51 -0 0 -2.51zm0 2.51zm-13.93 -2.53l2.51 0 0 2.51 -2.51 -0 0 -2.51zm0 2.51zm-13.93 -2.53l2.51 0 0 2.51 -2.51 -0 0 -2.51zm0 2.51zm-13.93 -2.53l2.51 0 0 2.51 -2.51 -0 0 -2.51zm0 2.51zm-13.93 -2.53l2.51 0 0 2.51 -2.51 -0 0 -2.51zm0 2.51zm-13.93 -2.53l2.51 0 0 2.51 -2.51 -0 0 -2.51z"/>
  </g>
 </g>
</svg>
